<svg width="128" height="24" viewBox="0 0 128 24" fill="none" xmlns="http://www.w3.org/2000/svg">
<g id="trustpilot stars 5">
<path id="Vector" d="M24 0H0V24H24V0Z" fill="#00B67A"/>
<path id="Vector_2" d="M49.75 0H25.75V24H49.75V0Z" fill="#00B67A"/>
<path id="Vector_3" d="M75.75 0H51.75V24H75.75V0Z" fill="#00B67A"/>
<path id="Vector_4" d="M101.5 0H77.5V24H101.5V0Z" fill="#00B67A"/>
<path id="Vector_5" d="M127.5 0H103.5V24H127.5V0Z" fill="#00B67A"/>
<path id="Vector_6" d="M11.75 16L15.5 15L17 19.75L11.75 16ZM20.25 10H13.75L11.75 4L9.75 10H3.5L8.75 13.75L6.75 19.75L12 16L15.25 13.75L20.25 10Z" fill="white"/>
<path id="Vector_7" d="M37.75 16L41.5 15L43 19.75L37.75 16ZM46 10H39.5L37.5 4L35.5 10H29L34.25 13.75L32.25 19.75L37.5 16L40.75 13.75L46 10Z" fill="white"/>
<path id="Vector_8" d="M63.75 16L67.5 15L69 19.75L63.75 16ZM72 10H65.5L63.5 4L61.5 10H55L60.25 13.75L58.5 19.75L63.75 16L67 13.75L72 10Z" fill="white"/>
<path id="Vector_9" d="M89.5 16L93.25 15L94.75 19.75L89.5 16ZM98 10H91.5L89.5 4L87.5 10H81L86.25 13.75L84.25 19.75L89.5 16L92.75 13.75L98 10Z" fill="white"/>
<path id="Vector_10" d="M115.5 16L119.25 15L120.75 19.75L115.5 16ZM123.75 10H117.25L115.25 4L113.5 10H107L112.25 13.75L110.25 19.75L115.5 16L118.75 13.75L123.75 10Z" fill="white"/>
</g>
</svg>
